<mxfile host="app.diagrams.net" agent="Mozilla/5.0 (Windows NT 10.0; Win64; x64) AppleWebKit/537.36 (KHTML, like Gecko) Chrome/126.0.0.0 Safari/537.36" version="24.9.3" pages="2">
  <diagram name="SEQ-1. 認証機能" id="X6GdfxCkcbclUyyPewcq">
    <mxGraphModel dx="2123" dy="682" grid="1" gridSize="10" guides="1" tooltips="1" connect="1" arrows="1" fold="1" page="0" pageScale="1" pageWidth="1169" pageHeight="827" math="0" shadow="0">
      <root>
        <mxCell id="0" />
        <mxCell id="1" parent="0" />
        <mxCell id="Nzng6OfeVKUN3XQnEHr7-5" value="" style="shape=umlLifeline;perimeter=lifelinePerimeter;whiteSpace=wrap;html=1;container=1;dropTarget=0;collapsible=0;recursiveResize=0;outlineConnect=0;portConstraint=eastwest;newEdgeStyle={&quot;curved&quot;:0,&quot;rounded&quot;:0};participant=umlActor;size=40;" vertex="1" parent="1">
          <mxGeometry x="-650" y="40" width="20" height="160" as="geometry" />
        </mxCell>
        <mxCell id="Nzng6OfeVKUN3XQnEHr7-6" value=":DispatchreSrevlet" style="shape=umlLifeline;perimeter=lifelinePerimeter;whiteSpace=wrap;html=1;container=1;dropTarget=0;collapsible=0;recursiveResize=0;outlineConnect=0;portConstraint=eastwest;newEdgeStyle={&quot;curved&quot;:0,&quot;rounded&quot;:0};" vertex="1" parent="1">
          <mxGeometry x="-380" y="40" width="120" height="1340" as="geometry" />
        </mxCell>
        <mxCell id="Nzng6OfeVKUN3XQnEHr7-13" value="" style="html=1;points=[[0,0,0,0,5],[0,1,0,0,-5],[1,0,0,0,5],[1,1,0,0,-5]];perimeter=orthogonalPerimeter;outlineConnect=0;targetShapes=umlLifeline;portConstraint=eastwest;newEdgeStyle={&quot;curved&quot;:0,&quot;rounded&quot;:0};" vertex="1" parent="Nzng6OfeVKUN3XQnEHr7-6">
          <mxGeometry x="55" y="70" width="10" height="1250" as="geometry" />
        </mxCell>
        <mxCell id="Nzng6OfeVKUN3XQnEHr7-8" value="login.jsp" style="text;strokeColor=none;fillColor=none;align=left;verticalAlign=middle;spacingTop=-1;spacingLeft=4;spacingRight=4;rotatable=0;labelPosition=right;points=[];portConstraint=eastwest;" vertex="1" parent="1">
          <mxGeometry x="-685" y="16" width="20" height="14" as="geometry" />
        </mxCell>
        <mxCell id="Nzng6OfeVKUN3XQnEHr7-14" style="edgeStyle=orthogonalEdgeStyle;rounded=0;orthogonalLoop=1;jettySize=auto;html=1;curved=0;entryX=0;entryY=0;entryDx=0;entryDy=5;entryPerimeter=0;" edge="1" parent="1" source="Nzng6OfeVKUN3XQnEHr7-5" target="Nzng6OfeVKUN3XQnEHr7-13">
          <mxGeometry relative="1" as="geometry">
            <Array as="points">
              <mxPoint x="-600" y="115" />
              <mxPoint x="-600" y="115" />
            </Array>
          </mxGeometry>
        </mxCell>
        <mxCell id="Nzng6OfeVKUN3XQnEHr7-16" value="&lt;font face=&quot;Lucida Console&quot;&gt;/dispatcher/login&lt;/font&gt;" style="edgeLabel;html=1;align=center;verticalAlign=middle;resizable=0;points=[];" vertex="1" connectable="0" parent="Nzng6OfeVKUN3XQnEHr7-14">
          <mxGeometry x="0.3074" y="2" relative="1" as="geometry">
            <mxPoint x="-24" y="-13" as="offset" />
          </mxGeometry>
        </mxCell>
        <mxCell id="Nzng6OfeVKUN3XQnEHr7-17" value=":HttpServletRequest" style="shape=umlLifeline;perimeter=lifelinePerimeter;whiteSpace=wrap;html=1;container=1;dropTarget=0;collapsible=0;recursiveResize=0;outlineConnect=0;portConstraint=eastwest;newEdgeStyle={&quot;curved&quot;:0,&quot;rounded&quot;:0};" vertex="1" parent="1">
          <mxGeometry x="-580" y="140" width="120" height="430" as="geometry" />
        </mxCell>
        <mxCell id="Nzng6OfeVKUN3XQnEHr7-19" style="edgeStyle=orthogonalEdgeStyle;rounded=0;orthogonalLoop=1;jettySize=auto;html=1;curved=0;" edge="1" parent="1" source="Nzng6OfeVKUN3XQnEHr7-13" target="Nzng6OfeVKUN3XQnEHr7-17">
          <mxGeometry relative="1" as="geometry">
            <Array as="points">
              <mxPoint x="-410" y="210" />
              <mxPoint x="-410" y="210" />
            </Array>
          </mxGeometry>
        </mxCell>
        <mxCell id="Nzng6OfeVKUN3XQnEHr7-20" value="&lt;font face=&quot;Lucida Console&quot;&gt;getParameter(&quot;action&quot;)&lt;/font&gt;" style="edgeLabel;html=1;align=center;verticalAlign=middle;resizable=0;points=[];" vertex="1" connectable="0" parent="Nzng6OfeVKUN3XQnEHr7-19">
          <mxGeometry x="-0.3247" y="1" relative="1" as="geometry">
            <mxPoint x="-29" y="-11" as="offset" />
          </mxGeometry>
        </mxCell>
        <mxCell id="Nzng6OfeVKUN3XQnEHr7-21" value="&lt;font face=&quot;Lucida Console&quot;&gt;return: action&lt;/font&gt;" style="html=1;verticalAlign=bottom;endArrow=open;dashed=1;endSize=8;curved=0;rounded=0;entryX=-0.2;entryY=0.576;entryDx=0;entryDy=0;entryPerimeter=0;" edge="1" parent="1">
          <mxGeometry relative="1" as="geometry">
            <mxPoint x="-520.5" y="240.00000000000003" as="sourcePoint" />
            <mxPoint x="-327" y="240.00000000000003" as="targetPoint" />
          </mxGeometry>
        </mxCell>
        <mxCell id="Nzng6OfeVKUN3XQnEHr7-22" value=":ControllerFactory" style="shape=umlLifeline;perimeter=lifelinePerimeter;whiteSpace=wrap;html=1;container=1;dropTarget=0;collapsible=0;recursiveResize=0;outlineConnect=0;portConstraint=eastwest;newEdgeStyle={&quot;curved&quot;:0,&quot;rounded&quot;:0};" vertex="1" parent="1">
          <mxGeometry x="-230" y="40" width="120" height="320" as="geometry" />
        </mxCell>
        <mxCell id="Nzng6OfeVKUN3XQnEHr7-23" value="" style="html=1;points=[[0,0,0,0,5],[0,1,0,0,-5],[1,0,0,0,5],[1,1,0,0,-5]];perimeter=orthogonalPerimeter;outlineConnect=0;targetShapes=umlLifeline;portConstraint=eastwest;newEdgeStyle={&quot;curved&quot;:0,&quot;rounded&quot;:0};" vertex="1" parent="Nzng6OfeVKUN3XQnEHr7-22">
          <mxGeometry x="55" y="220" width="10" height="80" as="geometry" />
        </mxCell>
        <mxCell id="Nzng6OfeVKUN3XQnEHr7-24" style="edgeStyle=orthogonalEdgeStyle;rounded=0;orthogonalLoop=1;jettySize=auto;html=1;curved=0;entryX=0;entryY=0;entryDx=0;entryDy=5;entryPerimeter=0;" edge="1" parent="1" source="Nzng6OfeVKUN3XQnEHr7-13" target="Nzng6OfeVKUN3XQnEHr7-23">
          <mxGeometry relative="1" as="geometry">
            <Array as="points">
              <mxPoint x="-280" y="265" />
              <mxPoint x="-280" y="265" />
            </Array>
          </mxGeometry>
        </mxCell>
        <mxCell id="Nzng6OfeVKUN3XQnEHr7-25" value="&lt;font face=&quot;Lucida Console&quot;&gt;create(action)&lt;/font&gt;" style="edgeLabel;html=1;align=center;verticalAlign=middle;resizable=0;points=[];" vertex="1" connectable="0" parent="Nzng6OfeVKUN3XQnEHr7-24">
          <mxGeometry x="0.1538" y="-4" relative="1" as="geometry">
            <mxPoint x="-10" y="-19" as="offset" />
          </mxGeometry>
        </mxCell>
        <mxCell id="Nzng6OfeVKUN3XQnEHr7-26" value="&lt;font face=&quot;Lucida Console&quot;&gt;return: controller&lt;/font&gt;" style="html=1;verticalAlign=bottom;endArrow=open;dashed=1;endSize=8;curved=0;rounded=0;" edge="1" parent="1">
          <mxGeometry x="-0.1111" relative="1" as="geometry">
            <mxPoint x="-175" y="334.5" as="sourcePoint" />
            <mxPoint x="-315" y="334.5" as="targetPoint" />
            <mxPoint as="offset" />
          </mxGeometry>
        </mxCell>
        <mxCell id="Nzng6OfeVKUN3XQnEHr7-27" value=":AuthController" style="shape=umlLifeline;perimeter=lifelinePerimeter;whiteSpace=wrap;html=1;container=1;dropTarget=0;collapsible=0;recursiveResize=0;outlineConnect=0;portConstraint=eastwest;newEdgeStyle={&quot;curved&quot;:0,&quot;rounded&quot;:0};" vertex="1" parent="1">
          <mxGeometry x="-50" y="40" width="100" height="1340" as="geometry" />
        </mxCell>
        <mxCell id="Nzng6OfeVKUN3XQnEHr7-28" value="" style="html=1;points=[[0,0,0,0,5],[0,1,0,0,-5],[1,0,0,0,5],[1,1,0,0,-5]];perimeter=orthogonalPerimeter;outlineConnect=0;targetShapes=umlLifeline;portConstraint=eastwest;newEdgeStyle={&quot;curved&quot;:0,&quot;rounded&quot;:0};" vertex="1" parent="Nzng6OfeVKUN3XQnEHr7-27">
          <mxGeometry x="45" y="220" width="10" height="1070" as="geometry" />
        </mxCell>
        <mxCell id="Nzng6OfeVKUN3XQnEHr7-34" style="edgeStyle=orthogonalEdgeStyle;rounded=0;orthogonalLoop=1;jettySize=auto;html=1;curved=0;" edge="1" parent="1" source="Nzng6OfeVKUN3XQnEHr7-23" target="Nzng6OfeVKUN3XQnEHr7-28">
          <mxGeometry relative="1" as="geometry">
            <Array as="points">
              <mxPoint x="-80" y="280" />
              <mxPoint x="-80" y="280" />
            </Array>
          </mxGeometry>
        </mxCell>
        <mxCell id="Nzng6OfeVKUN3XQnEHr7-35" value="&lt;font face=&quot;Lucida Console&quot;&gt;new AuthController()&lt;/font&gt;" style="edgeLabel;html=1;align=center;verticalAlign=middle;resizable=0;points=[];" vertex="1" connectable="0" parent="Nzng6OfeVKUN3XQnEHr7-34">
          <mxGeometry x="-0.45" y="1" relative="1" as="geometry">
            <mxPoint x="31" y="-14" as="offset" />
          </mxGeometry>
        </mxCell>
        <mxCell id="Nzng6OfeVKUN3XQnEHr7-36" value="&lt;font face=&quot;Lucida Console&quot;&gt;return: controller&lt;/font&gt;" style="html=1;verticalAlign=bottom;endArrow=open;dashed=1;endSize=8;curved=0;rounded=0;" edge="1" parent="1">
          <mxGeometry x="-0.1111" relative="1" as="geometry">
            <mxPoint x="-5" y="310" as="sourcePoint" />
            <mxPoint x="-165" y="310" as="targetPoint" />
            <mxPoint as="offset" />
          </mxGeometry>
        </mxCell>
        <mxCell id="Nzng6OfeVKUN3XQnEHr7-37" style="edgeStyle=orthogonalEdgeStyle;rounded=0;orthogonalLoop=1;jettySize=auto;html=1;curved=0;" edge="1" parent="1">
          <mxGeometry relative="1" as="geometry">
            <mxPoint x="-315" y="380" as="sourcePoint" />
            <mxPoint x="-5" y="380" as="targetPoint" />
            <Array as="points">
              <mxPoint x="-220" y="380" />
              <mxPoint x="-220" y="380" />
            </Array>
          </mxGeometry>
        </mxCell>
        <mxCell id="Nzng6OfeVKUN3XQnEHr7-38" value="&lt;font face=&quot;Lucida Console&quot;&gt;execute(request, response)&lt;/font&gt;" style="edgeLabel;html=1;align=center;verticalAlign=middle;resizable=0;points=[];" vertex="1" connectable="0" parent="Nzng6OfeVKUN3XQnEHr7-37">
          <mxGeometry x="0.2323" y="-3" relative="1" as="geometry">
            <mxPoint y="-13" as="offset" />
          </mxGeometry>
        </mxCell>
        <mxCell id="Nzng6OfeVKUN3XQnEHr7-39" value=":HttpServletRequest" style="shape=umlLifeline;perimeter=lifelinePerimeter;whiteSpace=wrap;html=1;container=1;dropTarget=0;collapsible=0;recursiveResize=0;outlineConnect=0;portConstraint=eastwest;newEdgeStyle={&quot;curved&quot;:0,&quot;rounded&quot;:0};" vertex="1" parent="1">
          <mxGeometry x="140" y="40" width="120" height="1340" as="geometry" />
        </mxCell>
        <mxCell id="Nzng6OfeVKUN3XQnEHr7-40" value="" style="html=1;points=[[0,0,0,0,5],[0,1,0,0,-5],[1,0,0,0,5],[1,1,0,0,-5]];perimeter=orthogonalPerimeter;outlineConnect=0;targetShapes=umlLifeline;portConstraint=eastwest;newEdgeStyle={&quot;curved&quot;:0,&quot;rounded&quot;:0};" vertex="1" parent="Nzng6OfeVKUN3XQnEHr7-39">
          <mxGeometry x="55" y="350" width="10" height="120" as="geometry" />
        </mxCell>
        <mxCell id="Nzng6OfeVKUN3XQnEHr7-90" value="" style="html=1;points=[[0,0,0,0,5],[0,1,0,0,-5],[1,0,0,0,5],[1,1,0,0,-5]];perimeter=orthogonalPerimeter;outlineConnect=0;targetShapes=umlLifeline;portConstraint=eastwest;newEdgeStyle={&quot;curved&quot;:0,&quot;rounded&quot;:0};" vertex="1" parent="Nzng6OfeVKUN3XQnEHr7-39">
          <mxGeometry x="55" y="1190" width="10" height="60" as="geometry" />
        </mxCell>
        <mxCell id="Nzng6OfeVKUN3XQnEHr7-41" style="edgeStyle=orthogonalEdgeStyle;rounded=0;orthogonalLoop=1;jettySize=auto;html=1;curved=0;" edge="1" parent="1" source="Nzng6OfeVKUN3XQnEHr7-28" target="Nzng6OfeVKUN3XQnEHr7-40">
          <mxGeometry relative="1" as="geometry">
            <Array as="points">
              <mxPoint x="80" y="400" />
              <mxPoint x="80" y="400" />
            </Array>
          </mxGeometry>
        </mxCell>
        <mxCell id="Nzng6OfeVKUN3XQnEHr7-42" value="&lt;font face=&quot;Lucida Console&quot;&gt;getParameter(&quot;email&quot;)&lt;/font&gt;" style="edgeLabel;html=1;align=center;verticalAlign=middle;resizable=0;points=[];" vertex="1" connectable="0" parent="Nzng6OfeVKUN3XQnEHr7-41">
          <mxGeometry x="-0.05" y="4" relative="1" as="geometry">
            <mxPoint x="5" y="-6" as="offset" />
          </mxGeometry>
        </mxCell>
        <mxCell id="Nzng6OfeVKUN3XQnEHr7-43" value="&lt;font face=&quot;Lucida Console&quot;&gt;return:email&lt;/font&gt;" style="html=1;verticalAlign=bottom;endArrow=open;dashed=1;endSize=8;curved=0;rounded=0;" edge="1" parent="1" source="Nzng6OfeVKUN3XQnEHr7-40">
          <mxGeometry relative="1" as="geometry">
            <mxPoint x="190" y="430" as="sourcePoint" />
            <mxPoint x="10" y="430" as="targetPoint" />
          </mxGeometry>
        </mxCell>
        <mxCell id="Nzng6OfeVKUN3XQnEHr7-44" style="edgeStyle=orthogonalEdgeStyle;rounded=0;orthogonalLoop=1;jettySize=auto;html=1;curved=0;" edge="1" parent="1" target="Nzng6OfeVKUN3XQnEHr7-40">
          <mxGeometry relative="1" as="geometry">
            <mxPoint x="10" y="470" as="sourcePoint" />
            <mxPoint x="190" y="470" as="targetPoint" />
            <Array as="points">
              <mxPoint x="150" y="470" />
              <mxPoint x="150" y="470" />
            </Array>
          </mxGeometry>
        </mxCell>
        <mxCell id="Nzng6OfeVKUN3XQnEHr7-45" value="&lt;font face=&quot;Lucida Console&quot;&gt;getParameter(&quot;paassword&quot;)&lt;/font&gt;" style="edgeLabel;html=1;align=center;verticalAlign=middle;resizable=0;points=[];" vertex="1" connectable="0" parent="Nzng6OfeVKUN3XQnEHr7-44">
          <mxGeometry x="-0.05" y="4" relative="1" as="geometry">
            <mxPoint y="-6" as="offset" />
          </mxGeometry>
        </mxCell>
        <mxCell id="Nzng6OfeVKUN3XQnEHr7-46" value="&lt;font face=&quot;Lucida Console&quot;&gt;return: password&lt;/font&gt;" style="html=1;verticalAlign=bottom;endArrow=open;dashed=1;endSize=8;curved=0;rounded=0;" edge="1" parent="1">
          <mxGeometry relative="1" as="geometry">
            <mxPoint x="195" y="500" as="sourcePoint" />
            <mxPoint x="10" y="500" as="targetPoint" />
          </mxGeometry>
        </mxCell>
        <mxCell id="Nzng6OfeVKUN3XQnEHr7-47" value=":AuthDAO" style="shape=umlLifeline;perimeter=lifelinePerimeter;whiteSpace=wrap;html=1;container=1;dropTarget=0;collapsible=0;recursiveResize=0;outlineConnect=0;portConstraint=eastwest;newEdgeStyle={&quot;curved&quot;:0,&quot;rounded&quot;:0};" vertex="1" parent="1">
          <mxGeometry x="310" y="40" width="100" height="880" as="geometry" />
        </mxCell>
        <mxCell id="Nzng6OfeVKUN3XQnEHr7-48" value="" style="html=1;points=[[0,0,0,0,5],[0,1,0,0,-5],[1,0,0,0,5],[1,1,0,0,-5]];perimeter=orthogonalPerimeter;outlineConnect=0;targetShapes=umlLifeline;portConstraint=eastwest;newEdgeStyle={&quot;curved&quot;:0,&quot;rounded&quot;:0};" vertex="1" parent="Nzng6OfeVKUN3XQnEHr7-47">
          <mxGeometry x="45" y="520" width="10" height="330" as="geometry" />
        </mxCell>
        <mxCell id="Nzng6OfeVKUN3XQnEHr7-84" value="" style="html=1;points=[[0,0,0,0,5],[0,1,0,0,-5],[1,0,0,0,5],[1,1,0,0,-5]];perimeter=orthogonalPerimeter;outlineConnect=0;targetShapes=umlLifeline;portConstraint=eastwest;newEdgeStyle={&quot;curved&quot;:0,&quot;rounded&quot;:0};" vertex="1" parent="Nzng6OfeVKUN3XQnEHr7-47">
          <mxGeometry x="55" y="687" width="10" height="93" as="geometry" />
        </mxCell>
        <mxCell id="Nzng6OfeVKUN3XQnEHr7-85" value="&lt;font face=&quot;Lucida Console&quot;&gt;mapToBean(rs)&lt;/font&gt;" style="html=1;align=left;spacingLeft=2;endArrow=block;rounded=0;edgeStyle=orthogonalEdgeStyle;curved=0;rounded=0;entryX=1;entryY=0;entryDx=0;entryDy=5;entryPerimeter=0;" edge="1" target="Nzng6OfeVKUN3XQnEHr7-84" parent="Nzng6OfeVKUN3XQnEHr7-47">
          <mxGeometry x="0.026" relative="1" as="geometry">
            <mxPoint x="55" y="668" as="sourcePoint" />
            <Array as="points">
              <mxPoint x="105" y="668" />
              <mxPoint x="105" y="693" />
            </Array>
            <mxPoint x="70" y="648" as="targetPoint" />
            <mxPoint as="offset" />
          </mxGeometry>
        </mxCell>
        <mxCell id="Nzng6OfeVKUN3XQnEHr7-50" style="edgeStyle=orthogonalEdgeStyle;rounded=0;orthogonalLoop=1;jettySize=auto;html=1;curved=0;entryX=0;entryY=0;entryDx=0;entryDy=5;entryPerimeter=0;" edge="1" parent="1" source="Nzng6OfeVKUN3XQnEHr7-28" target="Nzng6OfeVKUN3XQnEHr7-48">
          <mxGeometry relative="1" as="geometry">
            <Array as="points">
              <mxPoint x="310" y="565" />
              <mxPoint x="310" y="565" />
            </Array>
          </mxGeometry>
        </mxCell>
        <mxCell id="Nzng6OfeVKUN3XQnEHr7-51" value="&lt;font face=&quot;Lucida Console&quot;&gt;findByEmailAndPassword(email, password)&lt;/font&gt;" style="edgeLabel;html=1;align=center;verticalAlign=middle;resizable=0;points=[];" vertex="1" connectable="0" parent="Nzng6OfeVKUN3XQnEHr7-50">
          <mxGeometry x="-0.2857" y="-2" relative="1" as="geometry">
            <mxPoint x="40" y="-17" as="offset" />
          </mxGeometry>
        </mxCell>
        <mxCell id="Nzng6OfeVKUN3XQnEHr7-52" value=":CustomerBean" style="shape=umlLifeline;perimeter=lifelinePerimeter;whiteSpace=wrap;html=1;container=1;dropTarget=0;collapsible=0;recursiveResize=0;outlineConnect=0;portConstraint=eastwest;newEdgeStyle={&quot;curved&quot;:0,&quot;rounded&quot;:0};" vertex="1" parent="1">
          <mxGeometry x="500" y="40" width="100" height="1100" as="geometry" />
        </mxCell>
        <mxCell id="Nzng6OfeVKUN3XQnEHr7-61" value="" style="html=1;points=[[0,0,0,0,5],[0,1,0,0,-5],[1,0,0,0,5],[1,1,0,0,-5]];perimeter=orthogonalPerimeter;outlineConnect=0;targetShapes=umlLifeline;portConstraint=eastwest;newEdgeStyle={&quot;curved&quot;:0,&quot;rounded&quot;:0};" vertex="1" parent="Nzng6OfeVKUN3XQnEHr7-52">
          <mxGeometry x="45" y="685" width="10" height="75" as="geometry" />
        </mxCell>
        <mxCell id="Nzng6OfeVKUN3XQnEHr7-108" value="" style="html=1;points=[[0,0,0,0,5],[0,1,0,0,-5],[1,0,0,0,5],[1,1,0,0,-5]];perimeter=orthogonalPerimeter;outlineConnect=0;targetShapes=umlLifeline;portConstraint=eastwest;newEdgeStyle={&quot;curved&quot;:0,&quot;rounded&quot;:0};" vertex="1" parent="Nzng6OfeVKUN3XQnEHr7-52">
          <mxGeometry x="45" y="890" width="10" height="120" as="geometry" />
        </mxCell>
        <mxCell id="Nzng6OfeVKUN3XQnEHr7-53" value="" style="shape=umlLifeline;perimeter=lifelinePerimeter;whiteSpace=wrap;html=1;container=1;dropTarget=0;collapsible=0;recursiveResize=0;outlineConnect=0;portConstraint=eastwest;newEdgeStyle={&quot;curved&quot;:0,&quot;rounded&quot;:0};participant=umlActor;" vertex="1" parent="1">
          <mxGeometry x="760" y="40" width="20" height="930" as="geometry" />
        </mxCell>
        <mxCell id="Nzng6OfeVKUN3XQnEHr7-54" value="librarydb" style="text;strokeColor=none;fillColor=none;align=left;verticalAlign=middle;spacingTop=-1;spacingLeft=4;spacingRight=4;rotatable=0;labelPosition=right;points=[];portConstraint=eastwest;fontFamily=Lucida Console;" vertex="1" parent="1">
          <mxGeometry x="706" y="16" width="20" height="14" as="geometry" />
        </mxCell>
        <mxCell id="Nzng6OfeVKUN3XQnEHr7-57" style="edgeStyle=orthogonalEdgeStyle;rounded=0;orthogonalLoop=1;jettySize=auto;html=1;curved=0;" edge="1" parent="1" source="Nzng6OfeVKUN3XQnEHr7-48" target="Nzng6OfeVKUN3XQnEHr7-53">
          <mxGeometry relative="1" as="geometry">
            <Array as="points">
              <mxPoint x="570" y="585" />
              <mxPoint x="570" y="585" />
            </Array>
          </mxGeometry>
        </mxCell>
        <mxCell id="Nzng6OfeVKUN3XQnEHr7-58" value="&lt;font face=&quot;Lucida Console&quot;&gt;SELECT * FROM customers WHERE email = ? AND password = ?&lt;/font&gt;" style="edgeLabel;html=1;align=center;verticalAlign=middle;resizable=0;points=[];" vertex="1" connectable="0" parent="Nzng6OfeVKUN3XQnEHr7-57">
          <mxGeometry x="0.3227" relative="1" as="geometry">
            <mxPoint x="-63" y="-15" as="offset" />
          </mxGeometry>
        </mxCell>
        <mxCell id="Nzng6OfeVKUN3XQnEHr7-59" value="&lt;div&gt;&lt;font face=&quot;Lucida Console&quot;&gt;&lt;br&gt;&lt;/font&gt;&lt;/div&gt;&lt;font face=&quot;Lucida Console&quot;&gt;rs&lt;/font&gt;" style="html=1;verticalAlign=bottom;endArrow=open;dashed=1;endSize=8;curved=0;rounded=0;exitX=0.3;exitY=0.635;exitDx=0;exitDy=0;exitPerimeter=0;" edge="1" parent="1" target="Nzng6OfeVKUN3XQnEHr7-72">
          <mxGeometry relative="1" as="geometry">
            <mxPoint x="771" y="620" as="sourcePoint" />
            <mxPoint x="650" y="620" as="targetPoint" />
          </mxGeometry>
        </mxCell>
        <mxCell id="Nzng6OfeVKUN3XQnEHr7-64" style="edgeStyle=orthogonalEdgeStyle;rounded=0;orthogonalLoop=1;jettySize=auto;html=1;curved=0;" edge="1" parent="1">
          <mxGeometry relative="1" as="geometry">
            <mxPoint x="375" y="761" as="sourcePoint" />
            <mxPoint x="545" y="761" as="targetPoint" />
            <Array as="points">
              <mxPoint x="500" y="761" />
              <mxPoint x="500" y="761" />
            </Array>
          </mxGeometry>
        </mxCell>
        <mxCell id="Nzng6OfeVKUN3XQnEHr7-65" value="&lt;font face=&quot;Lucida Console&quot;&gt;new CustomerBean()&lt;/font&gt;" style="edgeLabel;html=1;align=center;verticalAlign=middle;resizable=0;points=[];" vertex="1" connectable="0" parent="Nzng6OfeVKUN3XQnEHr7-64">
          <mxGeometry x="0.1667" y="1" relative="1" as="geometry">
            <mxPoint x="-10" y="-9" as="offset" />
          </mxGeometry>
        </mxCell>
        <mxCell id="Nzng6OfeVKUN3XQnEHr7-66" value="&lt;font face=&quot;Lucida Console&quot;&gt;return: bean&lt;/font&gt;" style="html=1;verticalAlign=bottom;endArrow=open;dashed=1;endSize=8;curved=0;rounded=0;" edge="1" parent="1">
          <mxGeometry relative="1" as="geometry">
            <mxPoint x="545" y="784" as="sourcePoint" />
            <mxPoint x="375" y="784" as="targetPoint" />
          </mxGeometry>
        </mxCell>
        <mxCell id="Nzng6OfeVKUN3XQnEHr7-67" value="alt:[rs.next()]" style="shape=umlFrame;whiteSpace=wrap;html=1;pointerEvents=0;width=90;height=30;" vertex="1" parent="1">
          <mxGeometry x="320" y="651" width="270" height="190" as="geometry" />
        </mxCell>
        <mxCell id="Nzng6OfeVKUN3XQnEHr7-70" value=":ResultSet" style="shape=umlLifeline;perimeter=lifelinePerimeter;whiteSpace=wrap;html=1;container=1;dropTarget=0;collapsible=0;recursiveResize=0;outlineConnect=0;portConstraint=eastwest;newEdgeStyle={&quot;curved&quot;:0,&quot;rounded&quot;:0};" vertex="1" parent="1">
          <mxGeometry x="590" y="420" width="100" height="250" as="geometry" />
        </mxCell>
        <mxCell id="Nzng6OfeVKUN3XQnEHr7-72" value="" style="html=1;points=[[0,0,0,0,5],[0,1,0,0,-5],[1,0,0,0,5],[1,1,0,0,-5]];perimeter=orthogonalPerimeter;outlineConnect=0;targetShapes=umlLifeline;portConstraint=eastwest;newEdgeStyle={&quot;curved&quot;:0,&quot;rounded&quot;:0};" vertex="1" parent="Nzng6OfeVKUN3XQnEHr7-70">
          <mxGeometry x="45" y="180" width="10" height="50" as="geometry" />
        </mxCell>
        <mxCell id="Nzng6OfeVKUN3XQnEHr7-73" value="&lt;font face=&quot;Lucida Console&quot;&gt;return: rs&lt;/font&gt;" style="html=1;verticalAlign=bottom;endArrow=open;dashed=1;endSize=8;curved=0;rounded=0;entryX=0.54;entryY=0.666;entryDx=0;entryDy=0;entryPerimeter=0;" edge="1" parent="1">
          <mxGeometry relative="1" as="geometry">
            <mxPoint x="635" y="629.9999999999999" as="sourcePoint" />
            <mxPoint x="364" y="629.9999999999999" as="targetPoint" />
          </mxGeometry>
        </mxCell>
        <mxCell id="Nzng6OfeVKUN3XQnEHr7-86" value="&lt;font face=&quot;Lucida Console&quot;&gt;return: bean&lt;/font&gt;" style="html=1;verticalAlign=bottom;endArrow=open;dashed=1;endSize=8;curved=0;rounded=0;exitX=0.5;exitY=0.554;exitDx=0;exitDy=0;exitPerimeter=0;" edge="1" parent="1" target="Nzng6OfeVKUN3XQnEHr7-28">
          <mxGeometry relative="1" as="geometry">
            <mxPoint x="355" y="870.24" as="sourcePoint" />
            <mxPoint x="75" y="869.9999999999999" as="targetPoint" />
          </mxGeometry>
        </mxCell>
        <mxCell id="Nzng6OfeVKUN3XQnEHr7-89" style="edgeStyle=orthogonalEdgeStyle;rounded=0;orthogonalLoop=1;jettySize=auto;html=1;curved=0;" edge="1" parent="1">
          <mxGeometry relative="1" as="geometry">
            <mxPoint x="6" y="1237" as="sourcePoint" />
            <mxPoint x="196" y="1237" as="targetPoint" />
            <Array as="points">
              <mxPoint x="131" y="1237" />
              <mxPoint x="131" y="1237" />
            </Array>
          </mxGeometry>
        </mxCell>
        <mxCell id="Nzng6OfeVKUN3XQnEHr7-91" value="&lt;font face=&quot;Lucida Console&quot;&gt;getSession()&lt;/font&gt;" style="edgeLabel;html=1;align=center;verticalAlign=middle;resizable=0;points=[];" vertex="1" connectable="0" parent="Nzng6OfeVKUN3XQnEHr7-89">
          <mxGeometry x="0.0842" y="2" relative="1" as="geometry">
            <mxPoint y="-8" as="offset" />
          </mxGeometry>
        </mxCell>
        <mxCell id="Nzng6OfeVKUN3XQnEHr7-92" value="&lt;font face=&quot;Lucida Console&quot;&gt;:HttpSession&lt;/font&gt;" style="shape=umlLifeline;perimeter=lifelinePerimeter;whiteSpace=wrap;html=1;container=1;dropTarget=0;collapsible=0;recursiveResize=0;outlineConnect=0;portConstraint=eastwest;newEdgeStyle={&quot;curved&quot;:0,&quot;rounded&quot;:0};" vertex="1" parent="1">
          <mxGeometry x="355" y="1080" width="100" height="300" as="geometry" />
        </mxCell>
        <mxCell id="Nzng6OfeVKUN3XQnEHr7-93" value="" style="html=1;points=[[0,0,0,0,5],[0,1,0,0,-5],[1,0,0,0,5],[1,1,0,0,-5]];perimeter=orthogonalPerimeter;outlineConnect=0;targetShapes=umlLifeline;portConstraint=eastwest;newEdgeStyle={&quot;curved&quot;:0,&quot;rounded&quot;:0};" vertex="1" parent="Nzng6OfeVKUN3XQnEHr7-92">
          <mxGeometry x="45" y="160" width="10" height="30" as="geometry" />
        </mxCell>
        <mxCell id="Nzng6OfeVKUN3XQnEHr7-100" value="" style="html=1;points=[[0,0,0,0,5],[0,1,0,0,-5],[1,0,0,0,5],[1,1,0,0,-5]];perimeter=orthogonalPerimeter;outlineConnect=0;targetShapes=umlLifeline;portConstraint=eastwest;newEdgeStyle={&quot;curved&quot;:0,&quot;rounded&quot;:0};" vertex="1" parent="Nzng6OfeVKUN3XQnEHr7-92">
          <mxGeometry x="45" y="217" width="10" height="30" as="geometry" />
        </mxCell>
        <mxCell id="Nzng6OfeVKUN3XQnEHr7-94" style="edgeStyle=orthogonalEdgeStyle;rounded=0;orthogonalLoop=1;jettySize=auto;html=1;curved=0;" edge="1" parent="1">
          <mxGeometry relative="1" as="geometry">
            <mxPoint x="205" y="1245" as="sourcePoint" />
            <mxPoint x="400" y="1245" as="targetPoint" />
            <Array as="points">
              <mxPoint x="220" y="1245" />
              <mxPoint x="220" y="1245" />
            </Array>
          </mxGeometry>
        </mxCell>
        <mxCell id="Nzng6OfeVKUN3XQnEHr7-96" value="&lt;font face=&quot;Lucida Console&quot;&gt;session&lt;/font&gt;" style="html=1;verticalAlign=bottom;endArrow=open;dashed=1;endSize=8;curved=0;rounded=0;" edge="1" parent="1">
          <mxGeometry relative="1" as="geometry">
            <mxPoint x="400" y="1265" as="sourcePoint" />
            <mxPoint x="205" y="1265" as="targetPoint" />
          </mxGeometry>
        </mxCell>
        <mxCell id="Nzng6OfeVKUN3XQnEHr7-97" value="&lt;font face=&quot;Lucida Console&quot;&gt;return: session&lt;/font&gt;" style="html=1;verticalAlign=bottom;endArrow=open;dashed=1;endSize=8;curved=0;rounded=0;" edge="1" parent="1">
          <mxGeometry relative="1" as="geometry">
            <mxPoint x="196" y="1275" as="sourcePoint" />
            <mxPoint x="5" y="1275" as="targetPoint" />
          </mxGeometry>
        </mxCell>
        <mxCell id="Nzng6OfeVKUN3XQnEHr7-98" style="edgeStyle=orthogonalEdgeStyle;rounded=0;orthogonalLoop=1;jettySize=auto;html=1;curved=0;" edge="1" parent="1" target="Nzng6OfeVKUN3XQnEHr7-100">
          <mxGeometry relative="1" as="geometry">
            <mxPoint x="5" y="1307" as="sourcePoint" />
            <mxPoint x="395" y="1307" as="targetPoint" />
            <Array as="points">
              <mxPoint x="400" y="1307" />
              <mxPoint x="400" y="1307" />
            </Array>
          </mxGeometry>
        </mxCell>
        <mxCell id="Nzng6OfeVKUN3XQnEHr7-99" value="&lt;font face=&quot;Lucida Console&quot;&gt;setAttribute(&quot;auth&quot;, auth)&lt;/font&gt;" style="edgeLabel;html=1;align=center;verticalAlign=middle;resizable=0;points=[];" vertex="1" connectable="0" parent="Nzng6OfeVKUN3XQnEHr7-98">
          <mxGeometry x="0.0842" y="2" relative="1" as="geometry">
            <mxPoint x="81" y="-8" as="offset" />
          </mxGeometry>
        </mxCell>
        <mxCell id="Nzng6OfeVKUN3XQnEHr7-101" value=":Auth" style="shape=umlLifeline;perimeter=lifelinePerimeter;whiteSpace=wrap;html=1;container=1;dropTarget=0;collapsible=0;recursiveResize=0;outlineConnect=0;portConstraint=eastwest;newEdgeStyle={&quot;curved&quot;:0,&quot;rounded&quot;:0};" vertex="1" parent="1">
          <mxGeometry x="231" y="1080" width="100" height="130" as="geometry" />
        </mxCell>
        <mxCell id="Nzng6OfeVKUN3XQnEHr7-104" value="" style="html=1;points=[[0,0,0,0,5],[0,1,0,0,-5],[1,0,0,0,5],[1,1,0,0,-5]];perimeter=orthogonalPerimeter;outlineConnect=0;targetShapes=umlLifeline;portConstraint=eastwest;newEdgeStyle={&quot;curved&quot;:0,&quot;rounded&quot;:0};" vertex="1" parent="Nzng6OfeVKUN3XQnEHr7-101">
          <mxGeometry x="45" y="60" width="10" height="50" as="geometry" />
        </mxCell>
        <mxCell id="Nzng6OfeVKUN3XQnEHr7-102" style="edgeStyle=orthogonalEdgeStyle;rounded=0;orthogonalLoop=1;jettySize=auto;html=1;curved=0;" edge="1" parent="1">
          <mxGeometry relative="1" as="geometry">
            <mxPoint x="5" y="1150" as="sourcePoint" />
            <mxPoint x="276" y="1150" as="targetPoint" />
            <Array as="points">
              <mxPoint x="80" y="1150" />
              <mxPoint x="80" y="1150" />
            </Array>
          </mxGeometry>
        </mxCell>
        <mxCell id="Nzng6OfeVKUN3XQnEHr7-103" value="&lt;font face=&quot;Lucida Console&quot;&gt;new Auth(email., name)&lt;/font&gt;" style="edgeLabel;html=1;align=center;verticalAlign=middle;resizable=0;points=[];" vertex="1" connectable="0" parent="Nzng6OfeVKUN3XQnEHr7-102">
          <mxGeometry x="0.0842" y="2" relative="1" as="geometry">
            <mxPoint y="-8" as="offset" />
          </mxGeometry>
        </mxCell>
        <mxCell id="Nzng6OfeVKUN3XQnEHr7-105" value="&lt;font face=&quot;Lucida Console&quot;&gt;auth&lt;/font&gt;" style="html=1;verticalAlign=bottom;endArrow=open;dashed=1;endSize=8;curved=0;rounded=0;" edge="1" parent="1" target="Nzng6OfeVKUN3XQnEHr7-28">
          <mxGeometry relative="1" as="geometry">
            <mxPoint x="276" y="1180" as="sourcePoint" />
            <mxPoint x="-74" y="1180" as="targetPoint" />
          </mxGeometry>
        </mxCell>
        <mxCell id="Nzng6OfeVKUN3XQnEHr7-106" style="edgeStyle=orthogonalEdgeStyle;rounded=0;orthogonalLoop=1;jettySize=auto;html=1;curved=0;" edge="1" parent="1" target="Nzng6OfeVKUN3XQnEHr7-108">
          <mxGeometry relative="1" as="geometry">
            <mxPoint x="5" y="940" as="sourcePoint" />
            <mxPoint x="490" y="940" as="targetPoint" />
            <Array as="points">
              <mxPoint x="130" y="940" />
              <mxPoint x="130" y="940" />
            </Array>
          </mxGeometry>
        </mxCell>
        <mxCell id="Nzng6OfeVKUN3XQnEHr7-107" value="&lt;font face=&quot;Lucida Console&quot;&gt;getEmail()&lt;/font&gt;" style="edgeLabel;html=1;align=center;verticalAlign=middle;resizable=0;points=[];" vertex="1" connectable="0" parent="Nzng6OfeVKUN3XQnEHr7-106">
          <mxGeometry x="0.0842" y="2" relative="1" as="geometry">
            <mxPoint y="-8" as="offset" />
          </mxGeometry>
        </mxCell>
        <mxCell id="Nzng6OfeVKUN3XQnEHr7-109" value="&lt;font face=&quot;Lucida Console&quot;&gt;email&lt;/font&gt;" style="html=1;verticalAlign=bottom;endArrow=open;dashed=1;endSize=8;curved=0;rounded=0;entryX=0.5;entryY=0.602;entryDx=0;entryDy=0;entryPerimeter=0;" edge="1" parent="1" source="Nzng6OfeVKUN3XQnEHr7-108">
          <mxGeometry relative="1" as="geometry">
            <mxPoint x="370" y="970" as="sourcePoint" />
            <mxPoint x="5" y="970.3600000000001" as="targetPoint" />
          </mxGeometry>
        </mxCell>
        <mxCell id="Nzng6OfeVKUN3XQnEHr7-110" style="edgeStyle=orthogonalEdgeStyle;rounded=0;orthogonalLoop=1;jettySize=auto;html=1;curved=0;" edge="1" parent="1">
          <mxGeometry relative="1" as="geometry">
            <mxPoint x="5" y="1000" as="sourcePoint" />
            <mxPoint x="545" y="1000" as="targetPoint" />
            <Array as="points">
              <mxPoint x="130" y="1000" />
              <mxPoint x="130" y="1000" />
            </Array>
          </mxGeometry>
        </mxCell>
        <mxCell id="Nzng6OfeVKUN3XQnEHr7-111" value="&lt;font face=&quot;Lucida Console&quot;&gt;getName()&lt;/font&gt;" style="edgeLabel;html=1;align=center;verticalAlign=middle;resizable=0;points=[];" vertex="1" connectable="0" parent="Nzng6OfeVKUN3XQnEHr7-110">
          <mxGeometry x="0.0842" y="2" relative="1" as="geometry">
            <mxPoint y="-8" as="offset" />
          </mxGeometry>
        </mxCell>
        <mxCell id="Nzng6OfeVKUN3XQnEHr7-112" value="&lt;font face=&quot;Lucida Console&quot;&gt;name&lt;/font&gt;" style="html=1;verticalAlign=bottom;endArrow=open;dashed=1;endSize=8;curved=0;rounded=0;entryX=0.5;entryY=0.602;entryDx=0;entryDy=0;entryPerimeter=0;" edge="1" parent="1">
          <mxGeometry relative="1" as="geometry">
            <mxPoint x="545" y="1030" as="sourcePoint" />
            <mxPoint x="5" y="1030.3600000000001" as="targetPoint" />
            <mxPoint as="offset" />
          </mxGeometry>
        </mxCell>
        <mxCell id="Nzng6OfeVKUN3XQnEHr7-114" value="&lt;font face=&quot;Lucida Console&quot;&gt;return: nextURL&lt;/font&gt;" style="html=1;verticalAlign=bottom;endArrow=open;dashed=1;endSize=8;curved=0;rounded=0;" edge="1" parent="1">
          <mxGeometry relative="1" as="geometry">
            <mxPoint x="-6" y="1320" as="sourcePoint" />
            <mxPoint x="-317.5" y="1320" as="targetPoint" />
          </mxGeometry>
        </mxCell>
        <mxCell id="Nzng6OfeVKUN3XQnEHr7-117" value="dispatch" style="html=1;verticalAlign=bottom;endArrow=block;curved=0;rounded=0;" edge="1" parent="1" target="Nzng6OfeVKUN3XQnEHr7-115">
          <mxGeometry width="80" relative="1" as="geometry">
            <mxPoint x="-325" y="1340" as="sourcePoint" />
            <mxPoint x="-440.5" y="1340" as="targetPoint" />
          </mxGeometry>
        </mxCell>
        <mxCell id="Nzng6OfeVKUN3XQnEHr7-115" value="" style="shape=umlLifeline;perimeter=lifelinePerimeter;whiteSpace=wrap;html=1;container=0;dropTarget=0;collapsible=0;recursiveResize=0;outlineConnect=0;portConstraint=eastwest;newEdgeStyle={&quot;curved&quot;:0,&quot;rounded&quot;:0};participant=umlActor;" vertex="1" parent="1">
          <mxGeometry x="-650" y="270" width="20" height="1110" as="geometry" />
        </mxCell>
        <mxCell id="Nzng6OfeVKUN3XQnEHr7-116" value="&lt;span style=&quot;font-weight: normal;&quot;&gt;/top.jsp&lt;/span&gt;" style="text;align=center;fontStyle=1;verticalAlign=middle;spacingLeft=3;spacingRight=3;strokeColor=none;rotatable=0;points=[[0,0.5],[1,0.5]];portConstraint=eastwest;html=1;container=0;" vertex="1" parent="1">
          <mxGeometry x="-680" y="240" width="80" height="26" as="geometry" />
        </mxCell>
        <mxCell id="Nzng6OfeVKUN3XQnEHr7-120" style="edgeStyle=orthogonalEdgeStyle;rounded=0;orthogonalLoop=1;jettySize=auto;html=1;endArrow=none;endFill=0;exitX=0;exitY=0;exitDx=320;exitDy=29;exitPerimeter=0;" edge="1" parent="1" source="Nzng6OfeVKUN3XQnEHr7-119" target="Nzng6OfeVKUN3XQnEHr7-67">
          <mxGeometry relative="1" as="geometry">
            <Array as="points">
              <mxPoint x="70" y="720" />
            </Array>
          </mxGeometry>
        </mxCell>
        <mxCell id="Nzng6OfeVKUN3XQnEHr7-119" value="結果セットからBeanに移し替える処理は煩雑になるの&lt;div&gt;で&lt;font style=&quot;background-color: initial;&quot; face=&quot;Lucida Console&quot;&gt;mapToBean&lt;/font&gt;&lt;span style=&quot;background-color: initial;&quot;&gt;というメソッドに分割した。&lt;/span&gt;&lt;/div&gt;" style="shape=note;whiteSpace=wrap;html=1;backgroundOutline=1;darkOpacity=0.05;align=left;size=18;verticalAlign=top;" vertex="1" parent="1">
          <mxGeometry x="-60" y="700" width="320" height="40" as="geometry" />
        </mxCell>
      </root>
    </mxGraphModel>
  </diagram>
  <diagram id="mb781ekADRqCZrRbSJpg" name="SEQ-2. 利用者管理・検索画面表示">
    <mxGraphModel dx="1732" dy="977" grid="1" gridSize="10" guides="1" tooltips="1" connect="1" arrows="1" fold="1" page="0" pageScale="1" pageWidth="1169" pageHeight="827" math="0" shadow="0">
      <root>
        <mxCell id="0" />
        <mxCell id="1" parent="0" />
        <mxCell id="YTn_nKFmvio283lLQjD0-5" style="edgeStyle=orthogonalEdgeStyle;rounded=0;orthogonalLoop=1;jettySize=auto;html=1;curved=0;" edge="1" parent="1">
          <mxGeometry relative="1" as="geometry">
            <mxPoint x="-398.5" y="-120" as="sourcePoint" />
            <mxPoint x="-213" y="-119" as="targetPoint" />
            <Array as="points">
              <mxPoint x="-398" y="-119" />
            </Array>
          </mxGeometry>
        </mxCell>
        <mxCell id="YTn_nKFmvio283lLQjD0-1" value="" style="shape=umlLifeline;perimeter=lifelinePerimeter;whiteSpace=wrap;html=1;container=1;dropTarget=0;collapsible=0;recursiveResize=0;outlineConnect=0;portConstraint=eastwest;newEdgeStyle={&quot;curved&quot;:0,&quot;rounded&quot;:0};participant=umlActor;" vertex="1" parent="1">
          <mxGeometry x="-410" y="-200" width="20" height="300" as="geometry" />
        </mxCell>
        <mxCell id="YTn_nKFmvio283lLQjD0-2" value="&lt;font face=&quot;Lucida Console&quot;&gt;top.jsp&lt;/font&gt;" style="text;html=1;align=center;verticalAlign=middle;whiteSpace=wrap;rounded=0;" vertex="1" parent="1">
          <mxGeometry x="-430" y="-240" width="60" height="30" as="geometry" />
        </mxCell>
        <mxCell id="YTn_nKFmvio283lLQjD0-3" value=":DispatcherServlet" style="shape=umlLifeline;perimeter=lifelinePerimeter;whiteSpace=wrap;html=1;container=1;dropTarget=0;collapsible=0;recursiveResize=0;outlineConnect=0;portConstraint=eastwest;newEdgeStyle={&quot;curved&quot;:0,&quot;rounded&quot;:0};" vertex="1" parent="1">
          <mxGeometry x="-270" y="-200" width="120" height="300" as="geometry" />
        </mxCell>
        <mxCell id="YTn_nKFmvio283lLQjD0-4" value="" style="html=1;points=[[0,0,0,0,5],[0,1,0,0,-5],[1,0,0,0,5],[1,1,0,0,-5]];perimeter=orthogonalPerimeter;outlineConnect=0;targetShapes=umlLifeline;portConstraint=eastwest;newEdgeStyle={&quot;curved&quot;:0,&quot;rounded&quot;:0};" vertex="1" parent="YTn_nKFmvio283lLQjD0-3">
          <mxGeometry x="55" y="70" width="10" height="180" as="geometry" />
        </mxCell>
        <mxCell id="YTn_nKFmvio283lLQjD0-6" value="&lt;font face=&quot;Lucida Console&quot;&gt;/dispatcher/customers&lt;/font&gt;" style="text;html=1;align=center;verticalAlign=middle;resizable=0;points=[];autosize=1;strokeColor=none;fillColor=none;" vertex="1" parent="1">
          <mxGeometry x="-397" y="-149" width="180" height="30" as="geometry" />
        </mxCell>
      </root>
    </mxGraphModel>
  </diagram>
</mxfile>
